<?xml version="1.0" standalone="no"?>
<!DOCTYPE svg PUBLIC "-//W3C//DTD SVG 20010904//EN"
 "http://www.w3.org/TR/2001/REC-SVG-20010904/DTD/svg10.dtd">
<svg version="1.0" xmlns="http://www.w3.org/2000/svg"
 width="1120.000000pt" height="1120.000000pt" viewBox="0 0 1120.000000 1120.000000"
 preserveAspectRatio="xMidYMid meet">
<metadata>
Created by potrace 1.11, written by Peter Selinger 2001-2013
</metadata>
<g transform="translate(0.000000,1120.000000) scale(0.100000,-0.100000)"
fill="#000000" stroke="none">
<path d="M9690 11190 c-14 -5 -101 -31 -195 -58 -93 -27 -209 -62 -257 -76
-48 -15 -98 -29 -110 -31 -13 -3 -34 -9 -48 -14 -14 -5 -59 -19 -100 -31 -41
-12 -91 -27 -110 -33 -19 -6 -39 -12 -45 -13 -39 -10 -65 -17 -190 -54 -77
-23 -162 -48 -190 -57 -27 -8 -56 -15 -62 -15 -7 -1 -13 -4 -13 -7 0 -3 -14
-7 -31 -8 -17 -1 -37 -7 -43 -12 -7 -6 -25 -12 -41 -15 -17 -3 -61 -15 -100
-26 -38 -12 -74 -22 -80 -24 -5 -1 -30 -9 -55 -16 -25 -7 -49 -14 -55 -16 -5
-1 -71 -20 -145 -43 -74 -23 -142 -44 -150 -45 -53 -13 -185 -50 -220 -63 -19
-7 -30 -11 -55 -16 -11 -3 -74 -21 -140 -41 -66 -21 -142 -43 -170 -50 -44
-13 -118 -34 -280 -82 -59 -18 -57 -17 -115 -33 -25 -6 -63 -18 -85 -26 -22
-8 -51 -17 -65 -19 -14 -3 -56 -15 -95 -27 -73 -22 -159 -47 -185 -54 -8 -2
-60 -17 -115 -34 -55 -16 -165 -48 -245 -71 -80 -23 -152 -44 -160 -47 -23 -9
-32 -12 -81 -23 l-47 -11 -1 -614 c0 -476 2 -614 12 -617 6 -2 932 -3 2057 -3
l2045 1 3 1217 c1 669 -1 1217 -5 1216 -5 0 -19 -4 -33 -9z"/>
<path d="M5447 7813 c-1 0 -69 -2 -152 -4 -82 -2 -154 -5 -159 -7 -5 -3 -41
-6 -80 -8 -73 -3 -174 -11 -236 -19 -43 -5 -124 -15 -165 -21 -16 -2 -48 -6
-70 -10 -22 -4 -51 -8 -65 -9 -14 0 -31 -5 -38 -9 -8 -4 -16 -6 -18 -3 -3 3
-31 -1 -63 -9 -64 -14 -106 -23 -136 -28 -11 -2 -51 -11 -90 -21 -38 -9 -79
-19 -90 -21 -11 -3 -24 -6 -30 -8 -5 -1 -30 -8 -55 -15 -25 -7 -73 -21 -108
-32 -34 -12 -68 -22 -75 -23 -7 -2 -21 -6 -32 -11 -192 -72 -241 -90 -245 -90
-23 -2 -437 -210 -475 -238 -12 -9 -220 -147 -244 -162 -8 -5 -23 -18 -32 -27
-9 -10 -21 -18 -27 -18 -6 0 -12 -3 -14 -8 -1 -4 -16 -17 -32 -30 -155 -120
-368 -338 -498 -511 -32 -42 -62 -81 -68 -88 -5 -7 -10 -16 -10 -22 0 -5 -4
-11 -9 -13 -29 -11 -284 -462 -307 -543 -1 -5 -18 -46 -37 -90 -34 -80 -122
-331 -131 -376 -3 -13 -10 -40 -16 -59 -6 -19 -13 -42 -15 -50 -22 -90 -47
-201 -51 -225 -3 -16 -7 -41 -10 -55 -17 -97 -34 -201 -39 -235 -3 -22 -7 -56
-10 -75 -7 -49 -16 -136 -21 -195 -2 -27 -7 -90 -11 -140 -4 -49 -7 -236 -6
-415 1 -296 4 -388 17 -520 2 -25 7 -76 11 -115 4 -38 9 -81 12 -95 3 -14 7
-43 8 -65 2 -22 4 -42 5 -45 1 -3 3 -9 4 -15 1 -5 6 -35 11 -65 5 -30 9 -57
10 -60 2 -8 15 -74 19 -100 2 -14 16 -74 31 -135 15 -60 28 -114 29 -120 16
-67 76 -253 118 -365 48 -128 42 -114 124 -285 36 -77 67 -142 67 -145 1 -3 5
-9 9 -15 5 -5 38 -59 74 -120 36 -60 78 -126 93 -145 15 -19 34 -46 41 -60 7
-14 19 -29 26 -33 8 -4 14 -14 14 -22 0 -7 3 -15 8 -17 4 -2 36 -39 72 -83
101 -125 338 -358 438 -432 20 -15 42 -32 47 -38 19 -22 260 -183 355 -237 81
-46 324 -171 340 -174 3 0 18 -6 34 -13 235 -97 345 -134 566 -193 96 -25 235
-57 279 -63 18 -3 37 -7 41 -10 4 -3 29 -7 56 -10 27 -3 63 -10 79 -14 28 -8
50 -11 103 -15 12 0 22 -3 22 -6 0 -3 12 -5 28 -6 15 -1 52 -4 82 -8 30 -3 82
-9 115 -11 33 -3 78 -8 100 -10 218 -26 983 -26 1160 0 17 2 59 6 95 10 36 3
81 7 100 10 19 3 55 7 80 10 65 7 112 14 140 20 54 10 76 14 110 19 19 3 58
10 85 16 28 6 64 13 80 16 33 6 131 30 185 45 19 5 44 11 55 13 11 2 65 18
120 35 55 18 107 33 115 35 8 2 42 15 75 27 33 13 62 23 65 24 6 0 57 21 115
45 47 20 78 33 85 35 3 1 44 20 93 43 48 23 88 41 90 39 1 -1 16 8 34 21 17
12 34 22 37 22 20 0 354 212 368 234 5 6 8 7 8 1 0 -7 3 -7 8 0 4 6 23 22 44
37 20 15 42 34 50 41 7 7 23 19 34 28 100 68 357 329 457 463 20 27 41 52 45
55 4 4 25 33 47 66 22 33 42 62 45 65 5 5 38 55 82 125 59 94 168 302 168 321
0 8 5 14 10 14 6 0 10 8 10 18 0 10 6 26 13 37 7 11 22 43 32 70 10 28 26 68
35 90 10 22 24 60 31 85 7 25 18 48 24 52 5 4 7 8 3 8 -4 0 -1 17 7 37 19 50
66 215 90 318 28 123 44 209 39 216 -3 5 -1 9 3 9 5 0 9 8 10 17 1 10 4 32 8
48 7 38 16 99 20 145 1 19 4 35 5 35 1 0 4 18 6 40 8 73 12 110 14 110 2 0 9
106 14 196 2 42 5 80 8 85 3 5 4 158 3 339 -3 301 -7 417 -20 530 -2 22 -7 67
-10 101 -3 33 -7 69 -9 80 -2 11 -7 47 -11 79 -4 33 -9 69 -11 80 -2 10 -6 37
-10 60 -5 33 -39 204 -60 295 -37 165 -131 451 -207 630 -47 111 -155 322
-203 398 -19 29 -34 56 -34 61 0 4 -9 16 -20 26 -11 10 -20 23 -20 30 0 7 -9
20 -20 30 -11 10 -20 22 -20 26 0 5 -6 17 -14 26 -8 10 -38 50 -67 88 -29 39
-58 75 -64 82 -5 6 -26 30 -45 53 -100 119 -315 324 -430 410 -18 14 -38 30
-44 36 -39 38 -339 227 -428 271 -32 15 -58 31 -58 35 0 5 -6 8 -14 8 -8 0
-31 9 -53 20 -68 35 -213 99 -213 94 0 -3 -12 1 -27 9 -16 8 -39 20 -53 26
-35 15 -330 112 -357 117 -12 2 -34 9 -48 14 -14 5 -25 7 -25 4 0 -4 -7 -1
-15 6 -8 7 -15 10 -15 7 0 -3 -16 -1 -36 5 -20 5 -45 12 -55 14 -11 2 -28 6
-39 9 -36 9 -57 13 -95 19 -20 4 -40 8 -44 10 -3 2 -24 7 -46 10 -22 3 -51 8
-65 11 -14 3 -38 7 -55 10 -16 2 -48 7 -70 10 -22 4 -56 9 -75 10 -19 2 -35 4
-35 6 0 1 -13 3 -30 4 -16 2 -30 4 -30 5 0 2 -38 5 -170 15 -55 4 -109 9 -120
11 -36 7 -582 23 -588 17z m281 -1817 c46 -4 104 -11 130 -16 26 -4 50 -6 54
-4 5 3 8 0 8 -6 0 -6 4 -9 8 -6 9 6 140 -25 217 -51 28 -10 52 -18 55 -18 77
-20 316 -157 400 -230 71 -62 167 -162 210 -220 25 -33 47 -62 50 -65 14 -14
141 -262 161 -315 27 -70 58 -165 53 -165 -2 0 0 -8 5 -18 6 -11 12 -31 15
-46 3 -14 7 -34 10 -44 3 -9 8 -35 11 -57 4 -22 9 -49 10 -60 21 -123 40 -367
35 -455 -1 -14 -2 -38 -2 -55 1 -16 1 -55 1 -85 0 -30 0 -65 0 -77 1 -52 2
-92 2 -153 0 -36 0 -69 0 -75 1 -5 0 -21 0 -35 -1 -14 -1 -33 -1 -42 0 -10 0
-24 -1 -30 -1 -7 0 -31 1 -53 2 -58 -9 -324 -14 -344 -3 -9 -8 -38 -11 -66 -3
-27 -7 -61 -10 -75 -3 -14 -8 -40 -11 -59 -18 -106 -55 -232 -104 -356 -25
-64 -90 -190 -128 -250 -44 -69 -120 -167 -134 -173 -5 -2 -8 -11 -8 -20 0 -8
-3 -12 -7 -9 -3 4 -13 -2 -20 -13 -8 -11 -47 -47 -86 -80 -40 -33 -79 -67 -88
-75 -9 -8 -19 -15 -23 -15 -4 0 -22 -11 -39 -24 -104 -77 -379 -185 -537 -211
-184 -29 -245 -33 -440 -30 -107 2 -206 6 -220 9 -38 7 -151 27 -185 32 -16 3
-52 12 -78 20 -26 9 -53 17 -60 18 -37 8 -196 77 -250 108 -26 15 -52 28 -57
28 -6 0 -10 5 -10 10 0 6 -6 10 -12 10 -12 0 -58 33 -142 103 -63 52 -170 169
-214 232 -15 22 -29 42 -32 45 -3 3 -11 16 -19 30 -57 100 -80 141 -79 143 0
1 -11 28 -26 60 -14 32 -26 63 -26 71 0 7 -3 16 -7 20 -11 10 -31 73 -58 176
-31 122 -38 161 -62 345 -10 77 -10 1180 0 1260 11 85 17 127 22 155 3 14 8
41 11 60 35 205 136 461 253 639 59 89 220 262 285 306 16 11 40 29 55 41 47
37 237 140 276 149 6 1 21 7 35 12 52 22 211 64 290 77 14 3 25 5 25 6 0 1 16
3 35 5 79 7 185 17 187 18 4 4 216 -1 291 -7z"/>
</g>
</svg>
