<svg xmlns="http://www.w3.org/2000/svg" viewBox="0 0 39.67 10.37"><defs><style>.cls-1{fill:#231f20;}</style></defs><title>Asset 1</title><g id="Layer_2" data-name="Layer 2"><g id="Layer_1-2" data-name="Layer 1"><g id="_Group_" data-name="&lt;Group&gt;"><path id="_Compound_Path_" data-name="&lt;Compound Path&gt;" class="cls-1" d="M3,3.26H0v7H3c2.39,0,3.67-1.11,3.67-3.49S5.41,3.26,3,3.26ZM4.4,7.05C4.4,8,4,8.57,3,8.57H2.25V4.93H3c1,0,1.41.56,1.41,1.51Z"/><path id="_Path_" data-name="&lt;Path&gt;" class="cls-1" d="M12.57,7.4a1.17,1.17,0,0,1-1.24,1.29A1.16,1.16,0,0,1,10.1,7.4V3.26H7.85V7.43c0,1.93,1.29,2.94,3.48,2.94s3.47-1,3.47-2.94V3.26H12.57Z"/><path id="_Compound_Path_2" data-name="&lt;Compound Path&gt;" class="cls-1" d="M19.63,3.13c-2.39,0-3.77,1.23-3.77,3.62s1.38,3.62,3.77,3.62,3.78-1.23,3.78-3.62S22,3.13,19.63,3.13Zm1.48,3.94a1.48,1.48,0,1,1-3,0V6.42a1.48,1.48,0,1,1,3,0Z"/><path id="_Path_2" data-name="&lt;Path&gt;" class="cls-1" d="M27.89,4.81a1.17,1.17,0,0,1,1.23,1.32h2.14c0-2-1.33-3-3.36-3-2.39,0-3.63,1.23-3.63,3.62s1.24,3.62,3.63,3.62c2.13,0,3.36-1,3.36-3H29.19a1.17,1.17,0,0,1-1.32,1.28c-.91,0-1.3-.66-1.3-1.62V6.42C26.57,5.47,26.93,4.81,27.89,4.81Z"/><path id="_Compound_Path_3" data-name="&lt;Compound Path&gt;" class="cls-1" d="M35.89,3.13c-2.39,0-3.77,1.23-3.77,3.62s1.38,3.62,3.77,3.62,3.78-1.23,3.78-3.62S38.28,3.13,35.89,3.13Zm1.48,3.94a1.48,1.48,0,1,1-3,0V6.42a1.48,1.48,0,1,1,3,0Z"/><polygon id="_Path_3" data-name="&lt;Path&gt;" class="cls-1" points="19.69 2.25 23.5 2.25 23.5 0 19.69 1.11 19.69 2.25"/></g></g></g></svg>